<mxfile host="app.diagrams.net" agent="Mozilla/5.0 (Windows NT 10.0; Win64; x64) AppleWebKit/537.36 (KHTML, like Gecko) Chrome/128.0.0.0 Safari/537.36" version="24.7.14">
  <diagram name="Страница — 1" id="AAfpWqdvxG7IwiNq3u1F">
    <mxGraphModel dx="1434" dy="772" grid="1" gridSize="10" guides="1" tooltips="1" connect="1" arrows="1" fold="1" page="1" pageScale="1" pageWidth="827" pageHeight="1169" math="0" shadow="0">
      <root>
        <mxCell id="0" />
        <mxCell id="1" parent="0" />
        <mxCell id="0oX3LN4KU44zNvXH3F6g-1" value="Student" style="swimlane;fontStyle=0;childLayout=stackLayout;horizontal=1;startSize=26;fillColor=default;horizontalStack=0;resizeParent=1;resizeLast=0;collapsible=1;marginBottom=0;swimlaneFillColor=default;align=center;" vertex="1" parent="1">
          <mxGeometry x="490" y="30" width="200" height="110" as="geometry">
            <mxRectangle x="480" y="100" width="80" height="30" as="alternateBounds" />
          </mxGeometry>
        </mxCell>
        <mxCell id="0oX3LN4KU44zNvXH3F6g-2" value="student_id | Tournament_Registration(student_id)" style="shape=partialRectangle;top=0;left=0;right=0;bottom=0;align=left;verticalAlign=top;spacingTop=-2;fillColor=none;spacingLeft=64;spacingRight=4;overflow=hidden;rotatable=0;points=[[0,0.5],[1,0.5]];portConstraint=eastwest;dropTarget=0;" vertex="1" parent="0oX3LN4KU44zNvXH3F6g-1">
          <mxGeometry y="26" width="200" height="26" as="geometry" />
        </mxCell>
        <mxCell id="0oX3LN4KU44zNvXH3F6g-3" value="FK" style="shape=partialRectangle;top=0;left=0;bottom=0;fillColor=none;align=left;verticalAlign=middle;spacingLeft=4;spacingRight=4;overflow=hidden;rotatable=180;points=[];portConstraint=eastwest;part=1;" vertex="1" connectable="0" parent="0oX3LN4KU44zNvXH3F6g-2">
          <mxGeometry width="54" height="26" as="geometry" />
        </mxCell>
        <mxCell id="0oX3LN4KU44zNvXH3F6g-4" value="name" style="shape=partialRectangle;top=0;left=0;right=0;bottom=0;align=left;verticalAlign=top;spacingTop=-2;fillColor=none;spacingLeft=64;spacingRight=4;overflow=hidden;rotatable=0;points=[[0,0.5],[1,0.5]];portConstraint=eastwest;dropTarget=0;" vertex="1" parent="0oX3LN4KU44zNvXH3F6g-1">
          <mxGeometry y="52" width="200" height="26" as="geometry" />
        </mxCell>
        <mxCell id="0oX3LN4KU44zNvXH3F6g-5" value="" style="shape=partialRectangle;top=0;left=0;bottom=0;fillColor=none;align=left;verticalAlign=middle;spacingLeft=4;spacingRight=4;overflow=hidden;rotatable=180;points=[];portConstraint=eastwest;part=1;" vertex="1" connectable="0" parent="0oX3LN4KU44zNvXH3F6g-4">
          <mxGeometry width="54" height="26" as="geometry" />
        </mxCell>
        <mxCell id="0oX3LN4KU44zNvXH3F6g-6" value="university" style="shape=partialRectangle;top=0;left=0;right=0;bottom=0;align=left;verticalAlign=top;spacingTop=-2;fillColor=none;spacingLeft=64;spacingRight=4;overflow=hidden;rotatable=0;points=[[0,0.5],[1,0.5]];portConstraint=eastwest;dropTarget=0;" vertex="1" parent="0oX3LN4KU44zNvXH3F6g-1">
          <mxGeometry y="78" width="200" height="26" as="geometry" />
        </mxCell>
        <mxCell id="0oX3LN4KU44zNvXH3F6g-7" value="" style="shape=partialRectangle;top=0;left=0;bottom=0;fillColor=none;align=left;verticalAlign=middle;spacingLeft=4;spacingRight=4;overflow=hidden;rotatable=180;points=[];portConstraint=eastwest;part=1;" vertex="1" connectable="0" parent="0oX3LN4KU44zNvXH3F6g-6">
          <mxGeometry width="54" height="26" as="geometry" />
        </mxCell>
        <mxCell id="0oX3LN4KU44zNvXH3F6g-8" value="Team" style="swimlane;fontStyle=0;childLayout=stackLayout;horizontal=1;startSize=26;fillColor=default;horizontalStack=0;resizeParent=1;resizeLast=0;collapsible=1;marginBottom=0;swimlaneFillColor=default;align=center;" vertex="1" parent="1">
          <mxGeometry x="1021" y="420" width="220" height="110" as="geometry" />
        </mxCell>
        <mxCell id="0oX3LN4KU44zNvXH3F6g-9" value="team_id | Match(team_1_id) | Match(team_2_id) | Tournament_Registration(team_id)" style="shape=partialRectangle;top=0;left=0;right=0;bottom=0;align=left;verticalAlign=top;spacingTop=-2;fillColor=none;spacingLeft=64;spacingRight=4;overflow=hidden;rotatable=0;points=[[0,0.5],[1,0.5]];portConstraint=eastwest;dropTarget=0;" vertex="1" parent="0oX3LN4KU44zNvXH3F6g-8">
          <mxGeometry y="26" width="220" height="26" as="geometry" />
        </mxCell>
        <mxCell id="0oX3LN4KU44zNvXH3F6g-10" value="FK" style="shape=partialRectangle;top=0;left=0;bottom=0;fillColor=none;align=left;verticalAlign=middle;spacingLeft=4;spacingRight=4;overflow=hidden;rotatable=180;points=[];portConstraint=eastwest;part=1;" vertex="1" connectable="0" parent="0oX3LN4KU44zNvXH3F6g-9">
          <mxGeometry width="54" height="26" as="geometry" />
        </mxCell>
        <mxCell id="0oX3LN4KU44zNvXH3F6g-11" value="team_name" style="shape=partialRectangle;top=0;left=0;right=0;bottom=0;align=left;verticalAlign=top;spacingTop=-2;fillColor=none;spacingLeft=64;spacingRight=4;overflow=hidden;rotatable=0;points=[[0,0.5],[1,0.5]];portConstraint=eastwest;dropTarget=0;" vertex="1" parent="0oX3LN4KU44zNvXH3F6g-8">
          <mxGeometry y="52" width="220" height="26" as="geometry" />
        </mxCell>
        <mxCell id="0oX3LN4KU44zNvXH3F6g-12" value="" style="shape=partialRectangle;top=0;left=0;bottom=0;fillColor=none;align=left;verticalAlign=middle;spacingLeft=4;spacingRight=4;overflow=hidden;rotatable=180;points=[];portConstraint=eastwest;part=1;" vertex="1" connectable="0" parent="0oX3LN4KU44zNvXH3F6g-11">
          <mxGeometry width="54" height="26" as="geometry" />
        </mxCell>
        <mxCell id="0oX3LN4KU44zNvXH3F6g-13" value="rating" style="shape=partialRectangle;top=0;left=0;right=0;bottom=0;align=left;verticalAlign=top;spacingTop=-2;fillColor=none;spacingLeft=64;spacingRight=4;overflow=hidden;rotatable=0;points=[[0,0.5],[1,0.5]];portConstraint=eastwest;dropTarget=0;" vertex="1" parent="0oX3LN4KU44zNvXH3F6g-8">
          <mxGeometry y="78" width="220" height="26" as="geometry" />
        </mxCell>
        <mxCell id="0oX3LN4KU44zNvXH3F6g-14" value="" style="shape=partialRectangle;top=0;left=0;bottom=0;fillColor=none;align=left;verticalAlign=middle;spacingLeft=4;spacingRight=4;overflow=hidden;rotatable=180;points=[];portConstraint=eastwest;part=1;" vertex="1" connectable="0" parent="0oX3LN4KU44zNvXH3F6g-13">
          <mxGeometry width="54" height="26" as="geometry" />
        </mxCell>
        <mxCell id="0oX3LN4KU44zNvXH3F6g-15" value="Game" style="swimlane;fontStyle=0;childLayout=stackLayout;horizontal=1;startSize=26;fillColor=default;horizontalStack=0;resizeParent=1;resizeLast=0;collapsible=1;marginBottom=0;swimlaneFillColor=default;align=center;" vertex="1" parent="1">
          <mxGeometry x="60" y="320" width="270" height="104" as="geometry" />
        </mxCell>
        <mxCell id="0oX3LN4KU44zNvXH3F6g-16" value="game_id | Tournament(game_id)" style="shape=partialRectangle;top=0;left=0;right=0;bottom=0;align=left;verticalAlign=top;spacingTop=-2;fillColor=none;spacingLeft=64;spacingRight=4;overflow=hidden;rotatable=0;points=[[0,0.5],[1,0.5]];portConstraint=eastwest;dropTarget=0;" vertex="1" parent="0oX3LN4KU44zNvXH3F6g-15">
          <mxGeometry y="26" width="270" height="26" as="geometry" />
        </mxCell>
        <mxCell id="0oX3LN4KU44zNvXH3F6g-17" value="FK" style="shape=partialRectangle;top=0;left=0;bottom=0;fillColor=none;align=left;verticalAlign=middle;spacingLeft=4;spacingRight=4;overflow=hidden;rotatable=180;points=[];portConstraint=eastwest;part=1;" vertex="1" connectable="0" parent="0oX3LN4KU44zNvXH3F6g-16">
          <mxGeometry width="54" height="26" as="geometry" />
        </mxCell>
        <mxCell id="0oX3LN4KU44zNvXH3F6g-18" value="title" style="shape=partialRectangle;top=0;left=0;right=0;bottom=0;align=left;verticalAlign=top;spacingTop=-2;fillColor=none;spacingLeft=64;spacingRight=4;overflow=hidden;rotatable=0;points=[[0,0.5],[1,0.5]];portConstraint=eastwest;dropTarget=0;" vertex="1" parent="0oX3LN4KU44zNvXH3F6g-15">
          <mxGeometry y="52" width="270" height="26" as="geometry" />
        </mxCell>
        <mxCell id="0oX3LN4KU44zNvXH3F6g-19" value="" style="shape=partialRectangle;top=0;left=0;bottom=0;fillColor=none;align=left;verticalAlign=middle;spacingLeft=4;spacingRight=4;overflow=hidden;rotatable=180;points=[];portConstraint=eastwest;part=1;" vertex="1" connectable="0" parent="0oX3LN4KU44zNvXH3F6g-18">
          <mxGeometry width="54" height="26" as="geometry" />
        </mxCell>
        <mxCell id="0oX3LN4KU44zNvXH3F6g-20" value="genre" style="shape=partialRectangle;top=0;left=0;right=0;bottom=0;align=left;verticalAlign=top;spacingTop=-2;fillColor=none;spacingLeft=64;spacingRight=4;overflow=hidden;rotatable=0;points=[[0,0.5],[1,0.5]];portConstraint=eastwest;dropTarget=0;" vertex="1" parent="0oX3LN4KU44zNvXH3F6g-15">
          <mxGeometry y="78" width="270" height="26" as="geometry" />
        </mxCell>
        <mxCell id="0oX3LN4KU44zNvXH3F6g-21" value="" style="shape=partialRectangle;top=0;left=0;bottom=0;fillColor=none;align=left;verticalAlign=middle;spacingLeft=4;spacingRight=4;overflow=hidden;rotatable=180;points=[];portConstraint=eastwest;part=1;" vertex="1" connectable="0" parent="0oX3LN4KU44zNvXH3F6g-20">
          <mxGeometry width="54" height="26" as="geometry" />
        </mxCell>
        <mxCell id="0oX3LN4KU44zNvXH3F6g-22" value="Tournament" style="swimlane;fontStyle=0;childLayout=stackLayout;horizontal=1;startSize=26;fillColor=default;horizontalStack=0;resizeParent=1;resizeLast=0;collapsible=1;marginBottom=0;swimlaneFillColor=default;align=center;" vertex="1" parent="1">
          <mxGeometry x="480" y="310" width="250" height="156" as="geometry" />
        </mxCell>
        <mxCell id="0oX3LN4KU44zNvXH3F6g-23" value="tournament_id | Match(tournament_id) | Tournament_Registration(tournament_id) | Tournament_Organizer(tournament_id)" style="shape=partialRectangle;top=0;left=0;right=0;bottom=0;align=left;verticalAlign=top;spacingTop=-2;fillColor=none;spacingLeft=64;spacingRight=4;overflow=hidden;rotatable=0;points=[[0,0.5],[1,0.5]];portConstraint=eastwest;dropTarget=0;" vertex="1" parent="0oX3LN4KU44zNvXH3F6g-22">
          <mxGeometry y="26" width="250" height="26" as="geometry" />
        </mxCell>
        <mxCell id="0oX3LN4KU44zNvXH3F6g-24" value="FK" style="shape=partialRectangle;top=0;left=0;bottom=0;fillColor=none;align=left;verticalAlign=middle;spacingLeft=4;spacingRight=4;overflow=hidden;rotatable=180;points=[];portConstraint=eastwest;part=1;" vertex="1" connectable="0" parent="0oX3LN4KU44zNvXH3F6g-23">
          <mxGeometry width="54" height="26" as="geometry" />
        </mxCell>
        <mxCell id="0oX3LN4KU44zNvXH3F6g-25" value="name" style="shape=partialRectangle;top=0;left=0;right=0;bottom=0;align=left;verticalAlign=top;spacingTop=-2;fillColor=none;spacingLeft=64;spacingRight=4;overflow=hidden;rotatable=0;points=[[0,0.5],[1,0.5]];portConstraint=eastwest;dropTarget=0;" vertex="1" parent="0oX3LN4KU44zNvXH3F6g-22">
          <mxGeometry y="52" width="250" height="26" as="geometry" />
        </mxCell>
        <mxCell id="0oX3LN4KU44zNvXH3F6g-26" value="" style="shape=partialRectangle;top=0;left=0;bottom=0;fillColor=none;align=left;verticalAlign=middle;spacingLeft=4;spacingRight=4;overflow=hidden;rotatable=180;points=[];portConstraint=eastwest;part=1;" vertex="1" connectable="0" parent="0oX3LN4KU44zNvXH3F6g-25">
          <mxGeometry width="54" height="26" as="geometry" />
        </mxCell>
        <mxCell id="0oX3LN4KU44zNvXH3F6g-27" value="prize" style="shape=partialRectangle;top=0;left=0;right=0;bottom=0;align=left;verticalAlign=top;spacingTop=-2;fillColor=none;spacingLeft=64;spacingRight=4;overflow=hidden;rotatable=0;points=[[0,0.5],[1,0.5]];portConstraint=eastwest;dropTarget=0;" vertex="1" parent="0oX3LN4KU44zNvXH3F6g-22">
          <mxGeometry y="78" width="250" height="26" as="geometry" />
        </mxCell>
        <mxCell id="0oX3LN4KU44zNvXH3F6g-28" value="" style="shape=partialRectangle;top=0;left=0;bottom=0;fillColor=none;align=left;verticalAlign=middle;spacingLeft=4;spacingRight=4;overflow=hidden;rotatable=180;points=[];portConstraint=eastwest;part=1;" vertex="1" connectable="0" parent="0oX3LN4KU44zNvXH3F6g-27">
          <mxGeometry width="54" height="26" as="geometry" />
        </mxCell>
        <mxCell id="0oX3LN4KU44zNvXH3F6g-29" value="date" style="shape=partialRectangle;top=0;left=0;right=0;bottom=0;align=left;verticalAlign=top;spacingTop=-2;fillColor=none;spacingLeft=64;spacingRight=4;overflow=hidden;rotatable=0;points=[[0,0.5],[1,0.5]];portConstraint=eastwest;dropTarget=0;" vertex="1" parent="0oX3LN4KU44zNvXH3F6g-22">
          <mxGeometry y="104" width="250" height="26" as="geometry" />
        </mxCell>
        <mxCell id="0oX3LN4KU44zNvXH3F6g-30" value="" style="shape=partialRectangle;top=0;left=0;bottom=0;fillColor=none;align=left;verticalAlign=middle;spacingLeft=4;spacingRight=4;overflow=hidden;rotatable=180;points=[];portConstraint=eastwest;part=1;" vertex="1" connectable="0" parent="0oX3LN4KU44zNvXH3F6g-29">
          <mxGeometry width="54" height="26" as="geometry" />
        </mxCell>
        <mxCell id="0oX3LN4KU44zNvXH3F6g-31" value="game_id | Game(game_id)" style="shape=partialRectangle;top=0;left=0;right=0;bottom=0;align=left;verticalAlign=top;spacingTop=-2;fillColor=none;spacingLeft=64;spacingRight=4;overflow=hidden;rotatable=0;points=[[0,0.5],[1,0.5]];portConstraint=eastwest;dropTarget=0;" vertex="1" parent="0oX3LN4KU44zNvXH3F6g-22">
          <mxGeometry y="130" width="250" height="26" as="geometry" />
        </mxCell>
        <mxCell id="0oX3LN4KU44zNvXH3F6g-32" value="FK" style="shape=partialRectangle;top=0;left=0;bottom=0;fillColor=none;align=left;verticalAlign=middle;spacingLeft=4;spacingRight=4;overflow=hidden;rotatable=180;points=[];portConstraint=eastwest;part=1;" vertex="1" connectable="0" parent="0oX3LN4KU44zNvXH3F6g-31">
          <mxGeometry width="54" height="26" as="geometry" />
        </mxCell>
        <mxCell id="0oX3LN4KU44zNvXH3F6g-33" value="Organizer" style="swimlane;fontStyle=0;childLayout=stackLayout;horizontal=1;startSize=26;fillColor=default;horizontalStack=0;resizeParent=1;resizeLast=0;collapsible=1;marginBottom=0;swimlaneFillColor=default;align=center;" vertex="1" parent="1">
          <mxGeometry x="440" y="600" width="380" height="104" as="geometry" />
        </mxCell>
        <mxCell id="0oX3LN4KU44zNvXH3F6g-34" value="organizer_id | Tournament_Organizer(organizer_id)" style="shape=partialRectangle;top=0;left=0;right=0;bottom=0;align=left;verticalAlign=top;spacingTop=-2;fillColor=none;spacingLeft=64;spacingRight=4;overflow=hidden;rotatable=0;points=[[0,0.5],[1,0.5]];portConstraint=eastwest;dropTarget=0;" vertex="1" parent="0oX3LN4KU44zNvXH3F6g-33">
          <mxGeometry y="26" width="380" height="26" as="geometry" />
        </mxCell>
        <mxCell id="0oX3LN4KU44zNvXH3F6g-35" value="FK" style="shape=partialRectangle;top=0;left=0;bottom=0;fillColor=none;align=left;verticalAlign=middle;spacingLeft=4;spacingRight=4;overflow=hidden;rotatable=180;points=[];portConstraint=eastwest;part=1;" vertex="1" connectable="0" parent="0oX3LN4KU44zNvXH3F6g-34">
          <mxGeometry width="54" height="26" as="geometry" />
        </mxCell>
        <mxCell id="0oX3LN4KU44zNvXH3F6g-36" value="name" style="shape=partialRectangle;top=0;left=0;right=0;bottom=0;align=left;verticalAlign=top;spacingTop=-2;fillColor=none;spacingLeft=64;spacingRight=4;overflow=hidden;rotatable=0;points=[[0,0.5],[1,0.5]];portConstraint=eastwest;dropTarget=0;" vertex="1" parent="0oX3LN4KU44zNvXH3F6g-33">
          <mxGeometry y="52" width="380" height="26" as="geometry" />
        </mxCell>
        <mxCell id="0oX3LN4KU44zNvXH3F6g-37" value="" style="shape=partialRectangle;top=0;left=0;bottom=0;fillColor=none;align=left;verticalAlign=middle;spacingLeft=4;spacingRight=4;overflow=hidden;rotatable=180;points=[];portConstraint=eastwest;part=1;" vertex="1" connectable="0" parent="0oX3LN4KU44zNvXH3F6g-36">
          <mxGeometry width="54" height="26" as="geometry" />
        </mxCell>
        <mxCell id="0oX3LN4KU44zNvXH3F6g-38" value="contact_info" style="shape=partialRectangle;top=0;left=0;right=0;bottom=0;align=left;verticalAlign=top;spacingTop=-2;fillColor=none;spacingLeft=64;spacingRight=4;overflow=hidden;rotatable=0;points=[[0,0.5],[1,0.5]];portConstraint=eastwest;dropTarget=0;" vertex="1" parent="0oX3LN4KU44zNvXH3F6g-33">
          <mxGeometry y="78" width="380" height="26" as="geometry" />
        </mxCell>
        <mxCell id="0oX3LN4KU44zNvXH3F6g-39" value="" style="shape=partialRectangle;top=0;left=0;bottom=0;fillColor=none;align=left;verticalAlign=middle;spacingLeft=4;spacingRight=4;overflow=hidden;rotatable=180;points=[];portConstraint=eastwest;part=1;" vertex="1" connectable="0" parent="0oX3LN4KU44zNvXH3F6g-38">
          <mxGeometry width="54" height="26" as="geometry" />
        </mxCell>
        <mxCell id="0oX3LN4KU44zNvXH3F6g-40" value="Match" style="swimlane;fontStyle=0;childLayout=stackLayout;horizontal=1;startSize=26;fillColor=default;horizontalStack=0;resizeParent=1;resizeLast=0;collapsible=1;marginBottom=0;swimlaneFillColor=default;align=center;" vertex="1" parent="1">
          <mxGeometry x="930" y="580" width="330" height="182" as="geometry" />
        </mxCell>
        <mxCell id="0oX3LN4KU44zNvXH3F6g-41" value="match_id" style="shape=partialRectangle;top=0;left=0;right=0;bottom=0;align=left;verticalAlign=top;spacingTop=-2;fillColor=none;spacingLeft=64;spacingRight=4;overflow=hidden;rotatable=0;points=[[0,0.5],[1,0.5]];portConstraint=eastwest;dropTarget=0;" vertex="1" parent="0oX3LN4KU44zNvXH3F6g-40">
          <mxGeometry y="26" width="330" height="26" as="geometry" />
        </mxCell>
        <mxCell id="0oX3LN4KU44zNvXH3F6g-42" value="" style="shape=partialRectangle;top=0;left=0;bottom=0;fillColor=none;align=left;verticalAlign=middle;spacingLeft=4;spacingRight=4;overflow=hidden;rotatable=180;points=[];portConstraint=eastwest;part=1;" vertex="1" connectable="0" parent="0oX3LN4KU44zNvXH3F6g-41">
          <mxGeometry width="54" height="26" as="geometry" />
        </mxCell>
        <mxCell id="0oX3LN4KU44zNvXH3F6g-43" value="tournament_id | Tournament(tournament_id)" style="shape=partialRectangle;top=0;left=0;right=0;bottom=0;align=left;verticalAlign=top;spacingTop=-2;fillColor=none;spacingLeft=64;spacingRight=4;overflow=hidden;rotatable=0;points=[[0,0.5],[1,0.5]];portConstraint=eastwest;dropTarget=0;" vertex="1" parent="0oX3LN4KU44zNvXH3F6g-40">
          <mxGeometry y="52" width="330" height="26" as="geometry" />
        </mxCell>
        <mxCell id="0oX3LN4KU44zNvXH3F6g-44" value="FK" style="shape=partialRectangle;top=0;left=0;bottom=0;fillColor=none;align=left;verticalAlign=middle;spacingLeft=4;spacingRight=4;overflow=hidden;rotatable=180;points=[];portConstraint=eastwest;part=1;" vertex="1" connectable="0" parent="0oX3LN4KU44zNvXH3F6g-43">
          <mxGeometry width="54" height="26" as="geometry" />
        </mxCell>
        <mxCell id="0oX3LN4KU44zNvXH3F6g-45" value="team_1_id | Team(team_id)" style="shape=partialRectangle;top=0;left=0;right=0;bottom=0;align=left;verticalAlign=top;spacingTop=-2;fillColor=none;spacingLeft=64;spacingRight=4;overflow=hidden;rotatable=0;points=[[0,0.5],[1,0.5]];portConstraint=eastwest;dropTarget=0;" vertex="1" parent="0oX3LN4KU44zNvXH3F6g-40">
          <mxGeometry y="78" width="330" height="26" as="geometry" />
        </mxCell>
        <mxCell id="0oX3LN4KU44zNvXH3F6g-46" value="FK" style="shape=partialRectangle;top=0;left=0;bottom=0;fillColor=none;align=left;verticalAlign=middle;spacingLeft=4;spacingRight=4;overflow=hidden;rotatable=180;points=[];portConstraint=eastwest;part=1;" vertex="1" connectable="0" parent="0oX3LN4KU44zNvXH3F6g-45">
          <mxGeometry width="54" height="26" as="geometry" />
        </mxCell>
        <mxCell id="0oX3LN4KU44zNvXH3F6g-47" value="team_2_id | Team(team_id)" style="shape=partialRectangle;top=0;left=0;right=0;bottom=0;align=left;verticalAlign=top;spacingTop=-2;fillColor=none;spacingLeft=64;spacingRight=4;overflow=hidden;rotatable=0;points=[[0,0.5],[1,0.5]];portConstraint=eastwest;dropTarget=0;" vertex="1" parent="0oX3LN4KU44zNvXH3F6g-40">
          <mxGeometry y="104" width="330" height="26" as="geometry" />
        </mxCell>
        <mxCell id="0oX3LN4KU44zNvXH3F6g-48" value="FK" style="shape=partialRectangle;top=0;left=0;bottom=0;fillColor=none;align=left;verticalAlign=middle;spacingLeft=4;spacingRight=4;overflow=hidden;rotatable=180;points=[];portConstraint=eastwest;part=1;" vertex="1" connectable="0" parent="0oX3LN4KU44zNvXH3F6g-47">
          <mxGeometry width="54" height="26" as="geometry" />
        </mxCell>
        <mxCell id="0oX3LN4KU44zNvXH3F6g-49" value="result" style="shape=partialRectangle;top=0;left=0;right=0;bottom=0;align=left;verticalAlign=top;spacingTop=-2;fillColor=none;spacingLeft=64;spacingRight=4;overflow=hidden;rotatable=0;points=[[0,0.5],[1,0.5]];portConstraint=eastwest;dropTarget=0;" vertex="1" parent="0oX3LN4KU44zNvXH3F6g-40">
          <mxGeometry y="130" width="330" height="26" as="geometry" />
        </mxCell>
        <mxCell id="0oX3LN4KU44zNvXH3F6g-50" value="" style="shape=partialRectangle;top=0;left=0;bottom=0;fillColor=none;align=left;verticalAlign=middle;spacingLeft=4;spacingRight=4;overflow=hidden;rotatable=180;points=[];portConstraint=eastwest;part=1;" vertex="1" connectable="0" parent="0oX3LN4KU44zNvXH3F6g-49">
          <mxGeometry width="54" height="26" as="geometry" />
        </mxCell>
        <mxCell id="0oX3LN4KU44zNvXH3F6g-51" value="match_date" style="shape=partialRectangle;top=0;left=0;right=0;bottom=0;align=left;verticalAlign=top;spacingTop=-2;fillColor=none;spacingLeft=64;spacingRight=4;overflow=hidden;rotatable=0;points=[[0,0.5],[1,0.5]];portConstraint=eastwest;dropTarget=0;" vertex="1" parent="0oX3LN4KU44zNvXH3F6g-40">
          <mxGeometry y="156" width="330" height="26" as="geometry" />
        </mxCell>
        <mxCell id="0oX3LN4KU44zNvXH3F6g-52" value="" style="shape=partialRectangle;top=0;left=0;bottom=0;fillColor=none;align=left;verticalAlign=middle;spacingLeft=4;spacingRight=4;overflow=hidden;rotatable=180;points=[];portConstraint=eastwest;part=1;" vertex="1" connectable="0" parent="0oX3LN4KU44zNvXH3F6g-51">
          <mxGeometry width="54" height="26" as="geometry" />
        </mxCell>
        <mxCell id="0oX3LN4KU44zNvXH3F6g-53" value="Tournament_Registration" style="swimlane;fontStyle=0;childLayout=stackLayout;horizontal=1;startSize=26;fillColor=default;horizontalStack=0;resizeParent=1;resizeLast=0;collapsible=1;marginBottom=0;swimlaneFillColor=default;align=center;" vertex="1" parent="1">
          <mxGeometry x="940" y="70" width="330" height="156" as="geometry" />
        </mxCell>
        <mxCell id="0oX3LN4KU44zNvXH3F6g-54" value="registration_id" style="shape=partialRectangle;top=0;left=0;right=0;bottom=0;align=left;verticalAlign=top;spacingTop=-2;fillColor=none;spacingLeft=64;spacingRight=4;overflow=hidden;rotatable=0;points=[[0,0.5],[1,0.5]];portConstraint=eastwest;dropTarget=0;" vertex="1" parent="0oX3LN4KU44zNvXH3F6g-53">
          <mxGeometry y="26" width="330" height="26" as="geometry" />
        </mxCell>
        <mxCell id="0oX3LN4KU44zNvXH3F6g-55" value="" style="shape=partialRectangle;top=0;left=0;bottom=0;fillColor=none;align=left;verticalAlign=middle;spacingLeft=4;spacingRight=4;overflow=hidden;rotatable=180;points=[];portConstraint=eastwest;part=1;" vertex="1" connectable="0" parent="0oX3LN4KU44zNvXH3F6g-54">
          <mxGeometry width="54" height="26" as="geometry" />
        </mxCell>
        <mxCell id="0oX3LN4KU44zNvXH3F6g-56" value="student_id | Student(student_id)" style="shape=partialRectangle;top=0;left=0;right=0;bottom=0;align=left;verticalAlign=top;spacingTop=-2;fillColor=none;spacingLeft=64;spacingRight=4;overflow=hidden;rotatable=0;points=[[0,0.5],[1,0.5]];portConstraint=eastwest;dropTarget=0;" vertex="1" parent="0oX3LN4KU44zNvXH3F6g-53">
          <mxGeometry y="52" width="330" height="26" as="geometry" />
        </mxCell>
        <mxCell id="0oX3LN4KU44zNvXH3F6g-57" value="FK" style="shape=partialRectangle;top=0;left=0;bottom=0;fillColor=none;align=left;verticalAlign=middle;spacingLeft=4;spacingRight=4;overflow=hidden;rotatable=180;points=[];portConstraint=eastwest;part=1;" vertex="1" connectable="0" parent="0oX3LN4KU44zNvXH3F6g-56">
          <mxGeometry width="54" height="26" as="geometry" />
        </mxCell>
        <mxCell id="0oX3LN4KU44zNvXH3F6g-58" value="tournament_id | Tournament(tournament_id)" style="shape=partialRectangle;top=0;left=0;right=0;bottom=0;align=left;verticalAlign=top;spacingTop=-2;fillColor=none;spacingLeft=64;spacingRight=4;overflow=hidden;rotatable=0;points=[[0,0.5],[1,0.5]];portConstraint=eastwest;dropTarget=0;" vertex="1" parent="0oX3LN4KU44zNvXH3F6g-53">
          <mxGeometry y="78" width="330" height="26" as="geometry" />
        </mxCell>
        <mxCell id="0oX3LN4KU44zNvXH3F6g-59" value="FK" style="shape=partialRectangle;top=0;left=0;bottom=0;fillColor=none;align=left;verticalAlign=middle;spacingLeft=4;spacingRight=4;overflow=hidden;rotatable=180;points=[];portConstraint=eastwest;part=1;" vertex="1" connectable="0" parent="0oX3LN4KU44zNvXH3F6g-58">
          <mxGeometry width="54" height="26" as="geometry" />
        </mxCell>
        <mxCell id="0oX3LN4KU44zNvXH3F6g-60" value="team_id | Team(team_id)" style="shape=partialRectangle;top=0;left=0;right=0;bottom=0;align=left;verticalAlign=top;spacingTop=-2;fillColor=none;spacingLeft=64;spacingRight=4;overflow=hidden;rotatable=0;points=[[0,0.5],[1,0.5]];portConstraint=eastwest;dropTarget=0;" vertex="1" parent="0oX3LN4KU44zNvXH3F6g-53">
          <mxGeometry y="104" width="330" height="26" as="geometry" />
        </mxCell>
        <mxCell id="0oX3LN4KU44zNvXH3F6g-61" value="FK" style="shape=partialRectangle;top=0;left=0;bottom=0;fillColor=none;align=left;verticalAlign=middle;spacingLeft=4;spacingRight=4;overflow=hidden;rotatable=180;points=[];portConstraint=eastwest;part=1;" vertex="1" connectable="0" parent="0oX3LN4KU44zNvXH3F6g-60">
          <mxGeometry width="54" height="26" as="geometry" />
        </mxCell>
        <mxCell id="0oX3LN4KU44zNvXH3F6g-62" value="registration_date" style="shape=partialRectangle;top=0;left=0;right=0;bottom=0;align=left;verticalAlign=top;spacingTop=-2;fillColor=none;spacingLeft=64;spacingRight=4;overflow=hidden;rotatable=0;points=[[0,0.5],[1,0.5]];portConstraint=eastwest;dropTarget=0;" vertex="1" parent="0oX3LN4KU44zNvXH3F6g-53">
          <mxGeometry y="130" width="330" height="26" as="geometry" />
        </mxCell>
        <mxCell id="0oX3LN4KU44zNvXH3F6g-63" value="" style="shape=partialRectangle;top=0;left=0;bottom=0;fillColor=none;align=left;verticalAlign=middle;spacingLeft=4;spacingRight=4;overflow=hidden;rotatable=180;points=[];portConstraint=eastwest;part=1;" vertex="1" connectable="0" parent="0oX3LN4KU44zNvXH3F6g-62">
          <mxGeometry width="54" height="26" as="geometry" />
        </mxCell>
        <mxCell id="0oX3LN4KU44zNvXH3F6g-64" value="Tournament_Organizer" style="swimlane;fontStyle=0;childLayout=stackLayout;horizontal=1;startSize=26;fillColor=default;horizontalStack=0;resizeParent=1;resizeLast=0;collapsible=1;marginBottom=0;swimlaneFillColor=default;align=center;" vertex="1" parent="1">
          <mxGeometry x="890" y="310" width="300" height="80" as="geometry" />
        </mxCell>
        <mxCell id="0oX3LN4KU44zNvXH3F6g-65" value="tournament_id | Tournament(tournament_id)" style="shape=partialRectangle;top=0;left=0;right=0;bottom=0;align=left;verticalAlign=top;spacingTop=-2;fillColor=none;spacingLeft=64;spacingRight=4;overflow=hidden;rotatable=0;points=[[0,0.5],[1,0.5]];portConstraint=eastwest;dropTarget=0;" vertex="1" parent="0oX3LN4KU44zNvXH3F6g-64">
          <mxGeometry y="26" width="300" height="26" as="geometry" />
        </mxCell>
        <mxCell id="0oX3LN4KU44zNvXH3F6g-66" value="FK" style="shape=partialRectangle;top=0;left=0;bottom=0;fillColor=none;align=left;verticalAlign=middle;spacingLeft=4;spacingRight=4;overflow=hidden;rotatable=180;points=[];portConstraint=eastwest;part=1;" vertex="1" connectable="0" parent="0oX3LN4KU44zNvXH3F6g-65">
          <mxGeometry width="54" height="26" as="geometry" />
        </mxCell>
        <mxCell id="0oX3LN4KU44zNvXH3F6g-67" value="organizer_id | Organizer(organizer_id)" style="shape=partialRectangle;top=0;left=0;right=0;bottom=0;align=left;verticalAlign=top;spacingTop=-2;fillColor=none;spacingLeft=64;spacingRight=4;overflow=hidden;rotatable=0;points=[[0,0.5],[1,0.5]];portConstraint=eastwest;dropTarget=0;" vertex="1" parent="0oX3LN4KU44zNvXH3F6g-64">
          <mxGeometry y="52" width="300" height="26" as="geometry" />
        </mxCell>
        <mxCell id="0oX3LN4KU44zNvXH3F6g-68" value="FK" style="shape=partialRectangle;top=0;left=0;bottom=0;fillColor=none;align=left;verticalAlign=middle;spacingLeft=4;spacingRight=4;overflow=hidden;rotatable=180;points=[];portConstraint=eastwest;part=1;" vertex="1" connectable="0" parent="0oX3LN4KU44zNvXH3F6g-67">
          <mxGeometry width="54" height="26" as="geometry" />
        </mxCell>
        <mxCell id="PgkqSZEjCMSzFE7H7lfp-1" value="" style="edgeStyle=orthogonalEdgeStyle;rounded=0;orthogonalLoop=1;jettySize=auto;html=1;entryX=0;entryY=0.5;entryDx=0;entryDy=0;" edge="1" parent="1" source="0oX3LN4KU44zNvXH3F6g-34" target="0oX3LN4KU44zNvXH3F6g-67">
          <mxGeometry relative="1" as="geometry" />
        </mxCell>
        <mxCell id="PgkqSZEjCMSzFE7H7lfp-4" value="" style="edgeStyle=orthogonalEdgeStyle;rounded=0;orthogonalLoop=1;jettySize=auto;html=1;" edge="1" parent="1" source="0oX3LN4KU44zNvXH3F6g-65" target="0oX3LN4KU44zNvXH3F6g-23">
          <mxGeometry relative="1" as="geometry" />
        </mxCell>
        <mxCell id="PgkqSZEjCMSzFE7H7lfp-5" style="edgeStyle=orthogonalEdgeStyle;rounded=0;orthogonalLoop=1;jettySize=auto;html=1;exitX=0;exitY=0.5;exitDx=0;exitDy=0;" edge="1" parent="1" source="0oX3LN4KU44zNvXH3F6g-56" target="0oX3LN4KU44zNvXH3F6g-2">
          <mxGeometry relative="1" as="geometry" />
        </mxCell>
        <mxCell id="PgkqSZEjCMSzFE7H7lfp-17" style="edgeStyle=orthogonalEdgeStyle;rounded=0;orthogonalLoop=1;jettySize=auto;html=1;" edge="1" parent="1" source="0oX3LN4KU44zNvXH3F6g-58" target="0oX3LN4KU44zNvXH3F6g-23">
          <mxGeometry relative="1" as="geometry" />
        </mxCell>
        <mxCell id="PgkqSZEjCMSzFE7H7lfp-23" style="edgeStyle=orthogonalEdgeStyle;rounded=0;orthogonalLoop=1;jettySize=auto;html=1;exitX=0;exitY=0.5;exitDx=0;exitDy=0;entryX=-0.014;entryY=0.808;entryDx=0;entryDy=0;entryPerimeter=0;" edge="1" parent="1" source="0oX3LN4KU44zNvXH3F6g-45" target="0oX3LN4KU44zNvXH3F6g-9">
          <mxGeometry relative="1" as="geometry" />
        </mxCell>
        <mxCell id="PgkqSZEjCMSzFE7H7lfp-24" style="edgeStyle=orthogonalEdgeStyle;rounded=0;orthogonalLoop=1;jettySize=auto;html=1;exitX=0;exitY=0.5;exitDx=0;exitDy=0;entryX=-0.009;entryY=0.808;entryDx=0;entryDy=0;entryPerimeter=0;" edge="1" parent="1" source="0oX3LN4KU44zNvXH3F6g-47" target="0oX3LN4KU44zNvXH3F6g-9">
          <mxGeometry relative="1" as="geometry" />
        </mxCell>
        <mxCell id="PgkqSZEjCMSzFE7H7lfp-27" style="edgeStyle=orthogonalEdgeStyle;rounded=0;orthogonalLoop=1;jettySize=auto;html=1;" edge="1" parent="1" source="0oX3LN4KU44zNvXH3F6g-9" target="0oX3LN4KU44zNvXH3F6g-60">
          <mxGeometry relative="1" as="geometry">
            <Array as="points">
              <mxPoint x="1320" y="459" />
              <mxPoint x="1320" y="187" />
            </Array>
          </mxGeometry>
        </mxCell>
        <mxCell id="PgkqSZEjCMSzFE7H7lfp-29" style="edgeStyle=orthogonalEdgeStyle;rounded=0;orthogonalLoop=1;jettySize=auto;html=1;exitX=0;exitY=0.5;exitDx=0;exitDy=0;entryX=1;entryY=0.5;entryDx=0;entryDy=0;" edge="1" parent="1" source="0oX3LN4KU44zNvXH3F6g-31" target="0oX3LN4KU44zNvXH3F6g-16">
          <mxGeometry relative="1" as="geometry" />
        </mxCell>
      </root>
    </mxGraphModel>
  </diagram>
</mxfile>
